<?xml version="1.0" encoding="UTF-8"?>
<svg width="120" height="120" viewBox="0 0 120 120" fill="none" xmlns="http://www.w3.org/2000/svg">
  <rect width="120" height="120" rx="24" fill="#FDF2F8"/>
  <path d="M60 20C38.9543 20 22 36.9543 22 58C22 79.0457 38.9543 96 60 96C81.0457 96 98 79.0457 98 58C98 36.9543 81.0457 20 60 20Z" fill="#F9A8D4"/>
  <path d="M45 58C45 54.6863 47.6863 52 51 52C54.3137 52 57 54.6863 57 58C57 61.3137 54.3137 64 51 64C47.6863 64 45 61.3137 45 58Z" fill="#831843"/>
  <path d="M63 58C63 54.6863 65.6863 52 69 52C72.3137 52 75 54.6863 75 58C75 61.3137 72.3137 64 69 64C65.6863 64 63 61.3137 63 58Z" fill="#831843"/>
  <path d="M42 78C42 78 48 86 60 86C72 86 78 78 78 78" stroke="#831843" stroke-width="4" stroke-linecap="round"/>
</svg>
